<svg xmlns="http://www.w3.org/2000/svg" viewBox="0 0 800 600" width="800" height="600" role="img" aria-label="RUSSIAN CLUB">
  <defs>
    <linearGradient id="g" x1="0" y1="0" x2="1" y2="1">
      <stop offset="0" stop-color="#DDD9CC"/><stop offset="1" stop-color="#9C978A"/>
    </linearGradient>
  </defs>
  <rect width="800" height="600" fill="url(#g)"/>
  <rect x="0" y="261" width="800" height="75" fill="#000" opacity="0.07"/>
  <rect x="0" y="542" width="800" height="33" fill="#000" opacity="0.07"/>
  <rect x="0" y="255" width="800" height="113" fill="#000" opacity="0.03"/>
  <rect x="0" y="160" width="800" height="44" fill="#000" opacity="0.05"/>
  <rect x="0" y="252" width="800" height="78" fill="#000" opacity="0.06"/>
  <rect x="295" y="46" width="135" height="164" fill="#1B1B14" opacity="0.15"/>
  <rect x="438" y="121" width="98" height="95" fill="#1B1B14" opacity="0.21"/>
  <rect x="495" y="104" width="113" height="60" fill="#1B1B14" opacity="0.28"/>
  <rect x="45" y="147" width="135" height="102" fill="#1B1B14" opacity="0.26"/>
  <rect x="336" y="200" width="130" height="198" fill="#1B1B14" opacity="0.26"/>
  <rect x="249" y="133" width="256" height="110" fill="#1B1B14" opacity="0.27"/>
  <rect x="432" y="192" width="85" height="152" fill="#1B1B14" opacity="0.17"/>
  <circle cx="229" cy="215" r="34" fill="none" stroke="#1B1B14" stroke-width="2" opacity="0.25"/>
  <circle cx="697" cy="380" r="26" fill="none" stroke="#1B1B14" stroke-width="2" opacity="0.31"/>
  <circle cx="426" cy="113" r="65" fill="none" stroke="#1B1B14" stroke-width="2" opacity="0.26"/>
  <circle cx="393" cy="326" r="66" fill="none" stroke="#1B1B14" stroke-width="2" opacity="0.22"/>
  <path d="M483 180L58 262" stroke="#1B1B14" stroke-width="1" opacity=".14"/>
  <path d="M23 366L413 18" stroke="#1B1B14" stroke-width="1" opacity=".14"/>
  <path d="M562 428L374 385" stroke="#1B1B14" stroke-width="1" opacity=".14"/>
  <path d="M592 9L463 47" stroke="#1B1B14" stroke-width="1" opacity=".14"/>
  <path d="M724 185L638 201" stroke="#1B1B14" stroke-width="1" opacity=".14"/>
  <path d="M121 251L473 352" stroke="#1B1B14" stroke-width="1" opacity=".14"/>
  <path d="M524 363L537 256" stroke="#1B1B14" stroke-width="1" opacity=".14"/>
  <path d="M794 473L110 376" stroke="#1B1B14" stroke-width="1" opacity=".14"/>
  <path d="M302 37L443 93" stroke="#1B1B14" stroke-width="1" opacity=".14"/>
  <rect x="0" y="548" width="800" height="52" fill="#13130D" opacity=".78"/>
  <text x="22" y="580" fill="#CFCBBC" style="font:16px 'JetBrains Mono',monospace;letter-spacing:.12em">RUSSIAN CLUB</text>
  <text x="778" y="580" text-anchor="end" fill="#8B8578" style="font:13px 'JetBrains Mono',monospace;letter-spacing:.12em">REPLACE ME</text>
</svg>